<svg id="Layer_1" data-name="Layer 1" xmlns="http://www.w3.org/2000/svg" viewBox="0 0 285 400"><defs><style>.cls-1{fill:#fff;}</style></defs><path class="cls-1" d="M285,223v28a18,18,0,0,0-1.09,3.74,166.28,166.28,0,0,1-19.24,65.83c-20.29,37.9-50,64.65-92.36,75.66-5.71,1.48-11.54,2.52-17.31,3.77H130a17.1,17.1,0,0,0-2.64-1.14c-10.23-2.58-21-3.86-30.63-7.88C43.15,368.65,14.94,326.14,3.24,271c-1.4-6.6-2.18-13.33-3.24-20V223c1-6.34,2-12.71,3.15-19,8.58-45.42,30.27-82.53,69.09-108.75,7.9-5.34,8.27-7.17,3.53-15.31-1.09-1.86-2.19-3.72-3.16-5.64-9.41-18.69-6.73-36.21,7.9-51.09,9-9.22,20-15.28,32.31-19C118.46,2.53,124.27,1.39,130,0h25a15.72,15.72,0,0,0,3.19,1.13c14.93,2.06,28.59,7.31,40.41,16.73,11.48,9.17,19.43,20.4,19.23,36-.13,10-4.05,18.64-9.07,27-4.14,6.88-3.81,8.35,2.5,13.23.78.61,1.62,1.16,2.44,1.72,36.24,24.8,57.34,59.62,67,101.85C282.64,206,283.6,214.53,285,223Z"/></svg>
